<svg width="13" height="15" viewBox="0 0 13 15" fill="none" xmlns="http://www.w3.org/2000/svg">
<path d="M1.684 14.168C1.44133 14.168 1.22667 14.0933 1.04 13.944C0.853333 13.7947 0.750667 13.5987 0.732 13.356C0.732 13.0947 0.853333 12.824 1.096 12.544L5.996 6.384V7.56L1.404 1.82C1.16133 1.52133 1.04 1.25067 1.04 1.008C1.05867 0.765333 1.16133 0.569333 1.348 0.42C1.53467 0.270666 1.74933 0.195999 1.992 0.195999C2.272 0.195999 2.50533 0.251999 2.692 0.363999C2.89733 0.457333 3.084 0.615999 3.252 0.839999L7.256 5.908H6.472L10.504 0.839999C10.672 0.615999 10.8493 0.457333 11.036 0.363999C11.2227 0.251999 11.456 0.195999 11.736 0.195999C11.9973 0.195999 12.212 0.270666 12.38 0.42C12.5667 0.569333 12.66 0.774666 12.66 1.036C12.6787 1.27867 12.5667 1.54933 12.324 1.848L7.76 7.504V6.468L12.66 12.544C12.884 12.824 12.9867 13.0947 12.968 13.356C12.968 13.5987 12.8747 13.7947 12.688 13.944C12.5013 14.0933 12.2773 14.168 12.016 14.168C11.7547 14.168 11.5213 14.112 11.316 14C11.1293 13.9067 10.9427 13.748 10.756 13.524L6.444 8.092H7.256L2.944 13.524C2.776 13.7293 2.58933 13.888 2.384 14C2.19733 14.112 1.964 14.168 1.684 14.168Z" fill="#868E96"/>
</svg>
